<svg xmlns="http://www.w3.org/2000/svg" viewBox="0 0 400 400">
  <defs>
    <linearGradient id="skyH" x1="0" y1="0" x2="0" y2="1">
      <stop offset="0" stop-color="#eafaf4"/>
      <stop offset="1" stop-color="#d3f0e6"/>
    </linearGradient>
  </defs>
  <rect width="400" height="400" fill="url(#skyH)"/>
  <rect x="0" y="330" width="400" height="70" fill="#bfe6d8"/>
  <rect x="70" y="120" width="260" height="220" rx="14" fill="#ffffff"/>
  <rect x="70" y="120" width="260" height="36" rx="14" fill="#4fae8f"/>
  <rect x="70" y="142" width="260" height="14" fill="#4fae8f"/>
  <rect x="100" y="180" width="44" height="44" rx="8" fill="#cdeee1"/>
  <rect x="160" y="180" width="44" height="44" rx="8" fill="#cdeee1"/>
  <rect x="220" y="180" width="44" height="44" rx="8" fill="#cdeee1"/>
  <rect x="280" y="180" width="20" height="44" rx="8" fill="#cdeee1"/>
  <rect x="100" y="240" width="44" height="44" rx="8" fill="#cdeee1"/>
  <rect x="160" y="240" width="44" height="44" rx="8" fill="#cdeee1"/>
  <rect x="220" y="240" width="44" height="44" rx="8" fill="#cdeee1"/>
  <rect x="170" y="290" width="60" height="50" rx="6" fill="#4fae8f"/>
  <circle cx="200" cy="315" r="4" fill="#fff"/>
  <g transform="translate(200,145)">
    <circle r="17" fill="#ffffff"/>
    <rect x="-3" y="-10" width="6" height="20" rx="2" fill="#e8607a"/>
    <rect x="-10" y="-3" width="20" height="6" rx="2" fill="#e8607a"/>
  </g>
  <g transform="translate(295,150)">
    <circle r="24" fill="#eafaf4"/>
    <rect x="-3" y="-13" width="6" height="26" rx="2" fill="#4fae8f"/>
    <rect x="-13" y="-3" width="26" height="6" rx="2" fill="#4fae8f"/>
  </g>
</svg>
