<svg xmlns="http://www.w3.org/2000/svg" viewBox="0 0 400 400">
  <defs>
    <linearGradient id="sky9" x1="0" y1="0" x2="0" y2="1">
      <stop offset="0" stop-color="#f1eefc"/>
      <stop offset="1" stop-color="#e2dcf6"/>
    </linearGradient>
  </defs>
  <rect width="400" height="400" fill="url(#sky9)"/>
  <rect x="0" y="330" width="400" height="70" fill="#c7bdec"/>
  <rect x="60" y="150" width="280" height="180" rx="14" fill="#ffffff"/>
  <rect x="60" y="150" width="280" height="34" rx="14" fill="#7a5fb0"/>
  <rect x="60" y="172" width="280" height="12" fill="#7a5fb0"/>
  <g transform="translate(150,270)">
    <rect x="-50" y="-10" width="100" height="14" fill="#8a6b4a"/>
    <rect x="-46" y="-30" width="26" height="24" fill="#e8607a"/>
    <rect x="-18" y="-34" width="26" height="28" fill="#4fae8f"/>
    <rect x="10" y="-28" width="26" height="22" fill="#f2a94a"/>
    <rect x="38" y="-32" width="26" height="26" fill="#5b63b0"/>
  </g>
  <g transform="translate(275,250)">
    <ellipse cx="0" cy="26" rx="30" ry="7" fill="#ded6f2"/>
    <circle r="22" fill="#f2c07a"/>
    <circle cx="-14" cy="-16" r="9" fill="#f2c07a"/>
    <circle cx="14" cy="-16" r="9" fill="#f2c07a"/>
    <circle cx="-7" cy="2" r="3" fill="#4a2e7a"/>
    <circle cx="7" cy="2" r="3" fill="#4a2e7a"/>
  </g>
  <g transform="translate(200,168)">
    <circle r="15" fill="#ffffff"/>
    <path d="M -6 -4 L 6 -4 L 6 4 L 0 8 L -6 4 Z" fill="#7a5fb0"/>
  </g>
</svg>
